<?xml version="1.0" standalone="no"?><svg xmlns="http://www.w3.org/2000/svg" viewBox="0 0 1440 320"><path fill="#0099ff" fill-opacity="1" d="M0,0L40,42.7C80,85,160,171,240,218.7C320,267,400,277,480,234.7C560,192,640,96,720,85.3C800,75,880,149,960,176C1040,203,1120,181,1200,160C1280,139,1360,117,1400,106.7L1440,96L1440,320L1400,320C1360,320,1280,320,1200,320C1120,320,1040,320,960,320C880,320,800,320,720,320C640,320,560,320,480,320C400,320,320,320,240,320C160,320,80,320,40,320L0,320Z"></path></svg>